<svg xmlns="http://www.w3.org/2000/svg" xmlns:xlink="http://www.w3.org/1999/xlink" width="500" zoomAndPan="magnify" viewBox="0 0 375 374.999991" height="500" preserveAspectRatio="xMidYMid meet" version="1.0"><defs><g/><clipPath id="8e6a6dd816"><path d="M 40.167969 32.695312 L 334.832031 32.695312 L 334.832031 327.359375 L 40.167969 327.359375 Z M 40.167969 32.695312 " clip-rule="nonzero"/></clipPath><clipPath id="2f9d3aa1f0"><path d="M 187.5 32.695312 C 106.128906 32.695312 40.167969 98.660156 40.167969 180.027344 C 40.167969 261.398438 106.128906 327.359375 187.5 327.359375 C 268.871094 327.359375 334.832031 261.398438 334.832031 180.027344 C 334.832031 98.660156 268.871094 32.695312 187.5 32.695312 Z M 187.5 32.695312 " clip-rule="nonzero"/></clipPath><clipPath id="b1fc552554"><path d="M 40.167969 32.695312 L 334.824219 32.695312 L 334.824219 327.351562 L 40.167969 327.351562 Z M 40.167969 32.695312 " clip-rule="nonzero"/></clipPath><clipPath id="306f84d247"><path d="M 187.496094 32.695312 C 106.128906 32.695312 40.167969 98.65625 40.167969 180.023438 C 40.167969 261.390625 106.128906 327.351562 187.496094 327.351562 C 268.863281 327.351562 334.824219 261.390625 334.824219 180.023438 C 334.824219 98.65625 268.863281 32.695312 187.496094 32.695312 Z M 187.496094 32.695312 " clip-rule="nonzero"/></clipPath><clipPath id="0da4c2437a"><path d="M 186.296875 100.472656 L 238 100.472656 L 238 149 L 186.296875 149 Z M 186.296875 100.472656 " clip-rule="nonzero"/></clipPath><clipPath id="d11be407ca"><path d="M 221.089844 111.886719 C 223.253906 121.511719 228.949219 121.90625 230.914062 124.066406 C 232.484375 125.636719 233.269531 127.40625 233.664062 129.566406 C 234.058594 132.121094 233.859375 136.046875 232.484375 138.601562 C 231.109375 141.15625 227.96875 143.511719 225.609375 144.496094 C 223.644531 145.28125 222.074219 145.28125 219.714844 145.085938 C 216.179688 144.691406 211.074219 142.925781 206.75 141.351562 C 202.234375 139.585938 196.535156 137.421875 193.195312 134.671875 C 190.644531 132.511719 188.480469 130.351562 187.695312 127.601562 C 186.910156 124.851562 187.304688 121.117188 188.480469 118.566406 C 189.660156 116.011719 192.609375 113.457031 194.964844 112.277344 C 196.929688 111.296875 198.5 110.902344 201.054688 111.101562 C 205.574219 111.296875 214.214844 114.046875 220.109375 116.601562 C 225.804688 119.15625 233.269531 121.316406 235.824219 126.226562 C 238.574219 131.335938 237.984375 144.300781 234.644531 147.441406 C 231.894531 149.996094 225.21875 147.835938 220.304688 146.851562 C 214.804688 145.675781 208.125 143.316406 203.609375 140.371094 C 199.679688 137.816406 196.734375 134.085938 193.984375 130.546875 C 191.230469 127.011719 188.089844 122.886719 187.304688 119.15625 C 186.714844 116.011719 187.105469 112.671875 188.285156 110.117188 C 189.464844 107.566406 192.214844 105.207031 194.769531 104.027344 C 197.320312 102.851562 204 103.636719 204 103.636719 C 204 103.636719 195.160156 103.832031 195.160156 103.832031 C 195.160156 103.832031 200.660156 102.457031 203.214844 103.4375 C 206.359375 104.617188 210.679688 108.742188 211.859375 111.886719 C 212.839844 114.441406 212.449219 117.78125 211.664062 120.136719 C 210.875 122.496094 209.109375 125.046875 206.75 126.421875 C 203.804688 127.996094 198.109375 128.976562 194.769531 127.601562 C 191.429688 126.226562 187.894531 121.90625 187.105469 118.367188 C 186.320312 114.832031 188.089844 109.332031 190.644531 106.777344 C 193.195312 104.226562 198.695312 102.851562 202.035156 103.242188 C 204.785156 103.4375 207.339844 105.207031 209.109375 107.171875 C 210.875 109.136719 212.449219 111.886719 212.449219 114.636719 C 212.449219 117.976562 210.679688 123.671875 207.734375 125.636719 C 204.394531 127.996094 196.339844 127.996094 192.804688 126.421875 C 190.054688 125.246094 188.089844 121.90625 187.304688 119.15625 C 186.519531 116.40625 187.304688 112.476562 188.285156 110.117188 C 189.070312 108.152344 190.644531 106.582031 192.214844 105.402344 C 193.785156 104.226562 195.75 103.242188 197.910156 103.046875 C 200.464844 102.851562 206.554688 103.832031 206.75 105.011719 C 206.949219 105.992188 202.035156 107.367188 202.035156 108.742188 C 202.234375 111.101562 211.464844 113.851562 215.199219 116.992188 C 218.734375 119.941406 223.054688 123.082031 224.039062 127.011719 C 225.019531 131.53125 223.253906 140.960938 219.519531 142.925781 C 214.609375 145.675781 198.5 138.210938 193.195312 134.671875 C 190.25 132.511719 188.285156 130.351562 187.695312 127.601562 C 186.910156 124.261719 188.089844 118.566406 190.054688 115.816406 C 191.820312 113.457031 195.359375 111.886719 197.910156 111.296875 C 200.074219 110.902344 202.035156 111.101562 204 111.691406 C 206.160156 112.476562 207.539062 114.832031 210.289062 116.011719 C 214.214844 117.78125 221.878906 118.367188 225.804688 120.53125 C 228.753906 122.101562 231.308594 124.457031 232.683594 126.621094 C 233.859375 128.386719 234.058594 130.546875 234.058594 132.511719 C 234.058594 134.476562 233.664062 136.835938 232.484375 138.601562 C 231.109375 140.761719 228.554688 143.511719 225.609375 144.496094 C 222.269531 145.476562 216.964844 144.886719 213.039062 143.316406 C 208.914062 141.746094 204.589844 138.210938 201.839844 134.671875 C 199.089844 131.136719 197.519531 126.621094 196.535156 122.296875 C 195.554688 117.976562 195.160156 112.082031 196.535156 108.546875 C 197.714844 105.601562 199.875 103.046875 202.625 101.867188 C 205.769531 100.492188 211.269531 100.492188 214.414062 102.0625 C 217.554688 103.636719 221.089844 111.886719 221.089844 111.886719 " clip-rule="nonzero"/></clipPath><clipPath id="3027e61a38"><path d="M 184.125 104 L 217.996094 104 L 217.996094 131.667969 L 184.125 131.667969 Z M 184.125 104 " clip-rule="nonzero"/></clipPath><clipPath id="9c7315fd6b"><path d="M 204.984375 129.761719 C 193.195312 130.546875 191.230469 129.761719 189.660156 128.582031 C 188.089844 127.40625 186.519531 126.03125 185.730469 124.066406 C 184.75 121.707031 184.355469 117.582031 184.945312 115.03125 C 185.339844 112.867188 186.320312 111.296875 187.894531 109.726562 C 189.855469 107.957031 193.195312 105.796875 195.945312 105.601562 C 198.894531 105.402344 203.214844 106.976562 205.375 108.351562 C 206.75 109.136719 207.539062 109.921875 208.125 111.492188 C 209.109375 114.046875 210.089844 120.332031 208.914062 123.476562 C 207.929688 126.03125 205.574219 128.386719 203.410156 129.566406 C 201.25 130.746094 198.109375 131.53125 195.554688 130.941406 C 192.410156 130.15625 187.5 126.816406 185.730469 124.066406 C 184.355469 121.707031 184.160156 118.367188 184.75 115.816406 C 185.339844 113.261719 186.519531 110.316406 188.679688 108.742188 C 191.230469 106.777344 196.929688 105.011719 200.464844 105.992188 C 203.804688 106.976562 208.125 110.707031 209.304688 114.046875 C 210.484375 117.386719 209.699219 122.886719 207.539062 125.832031 C 205.375 128.582031 200.269531 130.941406 196.929688 131.136719 C 194.375 131.335938 191.625 129.960938 189.660156 128.582031 C 187.894531 127.40625 186.519531 126.03125 185.730469 124.066406 C 184.75 121.707031 184.355469 117.582031 184.945312 115.03125 C 185.339844 112.867188 186.125 111.296875 187.894531 109.726562 C 190.644531 107.367188 197.910156 104.617188 202.234375 104.226562 C 205.375 103.832031 208.519531 104.421875 210.875 105.601562 C 212.839844 106.582031 214.414062 108.152344 215.589844 109.726562 C 216.769531 111.296875 217.554688 113.457031 217.753906 115.421875 C 217.949219 117.386719 217.949219 119.546875 216.964844 121.511719 C 215.789062 123.871094 213.039062 127.011719 210.875 128.386719 C 209.109375 129.566406 204.984375 129.761719 204.984375 129.761719 " clip-rule="nonzero"/></clipPath><clipPath id="97185734c0"><path d="M 205 150 L 233 150 L 233 191.933594 L 205 191.933594 Z M 205 150 " clip-rule="nonzero"/></clipPath><clipPath id="9fd5cac4d7"><path d="M 208.125 183.785156 C 205.574219 175.535156 204.394531 164.140625 206.554688 159.03125 C 208.324219 155.105469 212.25 151.960938 215.394531 150.78125 C 217.949219 149.800781 221.089844 150.191406 223.449219 151.175781 C 225.804688 152.15625 228.359375 154.316406 229.734375 156.480469 C 231.109375 158.640625 232.09375 161.585938 231.503906 164.335938 C 230.914062 167.675781 227.769531 172.785156 224.628906 174.355469 C 221.484375 175.925781 215.984375 175.925781 212.839844 174.355469 C 209.699219 172.785156 206.554688 167.675781 205.964844 164.335938 C 205.375 161.585938 206.359375 158.640625 207.734375 156.480469 C 209.109375 154.316406 211.464844 151.960938 214.019531 151.175781 C 217.164062 150.191406 222.859375 150.976562 225.804688 152.550781 C 228.164062 153.925781 229.734375 155.890625 230.914062 159.03125 C 232.878906 164.335938 233.664062 177.890625 231.894531 183.390625 C 230.71875 186.730469 228.359375 188.890625 226.199219 190.265625 C 224.429688 191.445312 222.269531 191.839844 220.109375 191.839844 C 217.554688 191.640625 213.625 190.464844 211.664062 188.890625 C 209.894531 187.515625 208.125 183.785156 208.125 183.785156 " clip-rule="nonzero"/></clipPath><clipPath id="f16e4d38ca"><path d="M 210.289062 129.339844 L 263.476562 129.339844 L 263.476562 183.875 L 210.289062 183.875 Z M 210.289062 129.339844 " clip-rule="nonzero"/></clipPath><clipPath id="5c4699138a"><path d="M 263.328125 148.566406 C 262.089844 167.535156 254.253906 177.429688 248.894531 180.730469 C 244.773438 183.203125 240.234375 183.617188 236.113281 183.203125 C 231.988281 182.789062 227.453125 181.554688 223.742188 179.492188 C 220.03125 177.429688 216.734375 174.132812 214.671875 170.421875 C 212.609375 166.710938 210.546875 162.585938 210.960938 158.050781 C 211.375 151.453125 216.734375 139.910156 221.269531 135.375 C 224.566406 132.074219 228.277344 130.425781 232.8125 130.011719 C 239.410156 129.601562 256.730469 137.433594 256.730469 137.433594 " clip-rule="nonzero"/></clipPath></defs><g clip-path="url(#8e6a6dd816)"><g clip-path="url(#2f9d3aa1f0)"><path fill="#ffffff" d="M 40.167969 32.695312 L 334.832031 32.695312 L 334.832031 327.359375 L 40.167969 327.359375 Z M 40.167969 32.695312 " fill-opacity="1" fill-rule="nonzero"/></g></g><g clip-path="url(#b1fc552554)"><g clip-path="url(#306f84d247)"><path stroke-linecap="butt" transform="matrix(0.75, 0, 0, 0.75, 40.16768, 32.696369)" fill="none" stroke-linejoin="miter" d="M 196.437898 -0.00140842 C 87.948307 -0.00140842 0.000384864 87.946514 0.000384864 196.436104 C 0.000384864 304.925695 87.948307 392.873617 196.437898 392.873617 C 304.927488 392.873617 392.875411 304.925695 392.875411 196.436104 C 392.875411 87.946514 304.927488 -0.00140842 196.437898 -0.00140842 Z M 196.437898 -0.00140842 " stroke="#000000" stroke-width="10" stroke-opacity="1" stroke-miterlimit="4"/></g></g><g fill="#000000" fill-opacity="1"><g transform="translate(80.370974, 271.495394)"><g><path d="M 52.6875 -72.265625 L 52.6875 -10.75 L 89.53125 -10.75 C 92.082031 -10.75 93.910156 -10.253906 95.015625 -9.265625 C 96.128906 -8.285156 96.6875 -6.988281 96.6875 -5.375 C 96.6875 -3.832031 96.128906 -2.550781 95.015625 -1.53125 C 93.910156 -0.507812 92.082031 0 89.53125 0 L 27.5 0 C 24.9375 0 23.097656 -0.507812 21.984375 -1.53125 C 20.878906 -2.550781 20.328125 -3.832031 20.328125 -5.375 C 20.328125 -6.988281 20.878906 -8.285156 21.984375 -9.265625 C 23.097656 -10.253906 24.9375 -10.75 27.5 -10.75 L 41.953125 -10.75 L 41.953125 -138.890625 L 27.5 -138.890625 C 24.9375 -138.890625 23.097656 -139.378906 21.984375 -140.359375 C 20.878906 -141.335938 20.328125 -142.640625 20.328125 -144.265625 C 20.328125 -145.878906 20.96875 -147.242188 22.25 -148.359375 C 23.1875 -149.210938 24.9375 -149.640625 27.5 -149.640625 L 145.796875 -149.640625 L 145.796875 -112.671875 C 145.796875 -110.109375 145.285156 -108.273438 144.265625 -107.171875 C 143.242188 -106.066406 141.960938 -105.515625 140.421875 -105.515625 C 138.804688 -105.515625 137.484375 -106.066406 136.453125 -107.171875 C 135.429688 -108.273438 134.921875 -110.109375 134.921875 -112.671875 L 134.921875 -138.890625 L 52.6875 -138.890625 L 52.6875 -83 L 91.1875 -83 L 91.1875 -95.15625 C 91.1875 -97.707031 91.695312 -99.535156 92.71875 -100.640625 C 93.738281 -101.753906 95.0625 -102.3125 96.6875 -102.3125 C 98.21875 -102.3125 99.492188 -101.753906 100.515625 -100.640625 C 101.546875 -99.535156 102.0625 -97.707031 102.0625 -95.15625 L 102.0625 -60.109375 C 102.0625 -57.546875 101.546875 -55.710938 100.515625 -54.609375 C 99.492188 -53.503906 98.21875 -52.953125 96.6875 -52.953125 C 95.0625 -52.953125 93.738281 -53.503906 92.71875 -54.609375 C 91.695312 -55.710938 91.1875 -57.546875 91.1875 -60.109375 L 91.1875 -72.265625 Z M 52.6875 -72.265625 "/></g></g></g><g clip-path="url(#0da4c2437a)"><g clip-path="url(#d11be407ca)"><path fill="#ffffff" d="M 179.25 94.011719 L 243.683594 94.011719 L 243.683594 155.300781 L 179.25 155.300781 Z M 179.25 94.011719 " fill-opacity="1" fill-rule="nonzero"/></g></g><g clip-path="url(#3027e61a38)"><g clip-path="url(#9c7315fd6b)"><path fill="#ffffff" d="M 176.890625 96.367188 L 225.609375 96.367188 L 225.609375 138.996094 L 176.890625 138.996094 Z M 176.890625 96.367188 " fill-opacity="1" fill-rule="nonzero"/></g></g><g clip-path="url(#97185734c0)"><g clip-path="url(#9fd5cac4d7)"><path fill="#ffffff" d="M 198.109375 142.925781 L 239.753906 142.925781 L 239.753906 199.695312 L 198.109375 199.695312 Z M 198.109375 142.925781 " fill-opacity="1" fill-rule="nonzero"/></g></g><g clip-path="url(#f16e4d38ca)"><g clip-path="url(#5c4699138a)"><path fill="#ffffff" d="M 194.46875 113.519531 L 280.644531 113.519531 L 280.644531 199.695312 L 194.46875 199.695312 Z M 194.46875 113.519531 " fill-opacity="1" fill-rule="nonzero"/></g></g><g fill="#000000" fill-opacity="1"><g transform="translate(151.096459, 216.131896)"><g><path d="M 105.328125 -125 L 105.328125 -128.234375 C 105.328125 -130.535156 105.765625 -132.179688 106.640625 -133.171875 C 107.523438 -134.171875 108.695312 -134.671875 110.15625 -134.671875 C 111.613281 -134.671875 112.78125 -134.171875 113.65625 -133.171875 C 114.539062 -132.179688 114.984375 -130.535156 114.984375 -128.234375 L 114.984375 -103.59375 C 114.984375 -101.289062 114.539062 -99.640625 113.65625 -98.640625 C 112.78125 -97.640625 111.613281 -97.140625 110.15625 -97.140625 C 108.769531 -97.140625 107.632812 -97.597656 106.75 -98.515625 C 105.875 -99.441406 105.398438 -100.941406 105.328125 -103.015625 C 104.941406 -109.460938 101.617188 -115.253906 95.359375 -120.390625 C 89.109375 -125.535156 80.921875 -128.109375 70.796875 -128.109375 C 60.128906 -128.109375 51.644531 -125.363281 45.34375 -119.875 C 39.050781 -114.394531 35.90625 -107.929688 35.90625 -100.484375 C 35.90625 -96.648438 36.785156 -93.160156 38.546875 -90.015625 C 40.316406 -86.867188 42.660156 -84.316406 45.578125 -82.359375 C 48.492188 -80.398438 51.789062 -78.828125 55.46875 -77.640625 C 59.15625 -76.453125 64.914062 -75.203125 72.75 -73.890625 C 85.863281 -71.742188 94.914062 -69.5625 99.90625 -67.34375 C 106.582031 -64.34375 111.628906 -60.195312 115.046875 -54.90625 C 118.460938 -49.613281 120.171875 -43.359375 120.171875 -36.140625 C 120.171875 -25.085938 115.753906 -15.664062 106.921875 -7.875 C 98.097656 -0.09375 86.207031 3.796875 71.25 3.796875 C 54.445312 3.796875 41.019531 -1.457031 30.96875 -11.96875 L 30.96875 -6.453125 C 30.96875 -4.148438 30.523438 -2.5 29.640625 -1.5 C 28.753906 -0.5 27.582031 0 26.125 0 C 24.75 0 23.597656 -0.5 22.671875 -1.5 C 21.753906 -2.5 21.296875 -4.148438 21.296875 -6.453125 L 21.296875 -33.15625 C 21.296875 -35.53125 21.734375 -37.21875 22.609375 -38.21875 C 23.492188 -39.21875 24.664062 -39.71875 26.125 -39.71875 C 27.507812 -39.71875 28.640625 -39.253906 29.515625 -38.328125 C 30.398438 -37.410156 30.882812 -35.914062 30.96875 -33.84375 C 31.34375 -26.78125 35.117188 -20.351562 42.296875 -14.5625 C 49.472656 -8.769531 59.125 -5.875 71.25 -5.875 C 83.375 -5.875 92.945312 -8.90625 99.96875 -14.96875 C 106.988281 -21.03125 110.5 -28.203125 110.5 -36.484375 C 110.5 -41.546875 109.15625 -46.050781 106.46875 -50 C 103.78125 -53.957031 99.789062 -57.085938 94.5 -59.390625 C 90.8125 -61.003906 83.140625 -62.804688 71.484375 -64.796875 C 55.441406 -67.484375 43.890625 -71.59375 36.828125 -77.125 C 29.773438 -82.644531 26.25 -90.507812 26.25 -100.71875 C 26.25 -110.84375 30.296875 -119.550781 38.390625 -126.84375 C 46.484375 -134.132812 57.164062 -137.78125 70.4375 -137.78125 C 83.945312 -137.78125 95.578125 -133.519531 105.328125 -125 Z M 105.328125 -125 "/></g></g></g><g fill="#000000" fill-opacity="1"><g transform="translate(187.871392, 274.33676)"><g><path d="M 3.015625 -3.140625 L 3.015625 -15.453125 L 2.515625 -15.453125 C 1.753906 -15.453125 1.210938 -15.597656 0.890625 -15.890625 C 0.578125 -16.179688 0.421875 -16.5625 0.421875 -17.03125 C 0.421875 -17.507812 0.578125 -17.894531 0.890625 -18.1875 C 1.210938 -18.476562 1.753906 -18.625 2.515625 -18.625 L 10.40625 -18.625 C 12.289062 -18.625 13.804688 -18.097656 14.953125 -17.046875 C 16.097656 -15.992188 16.671875 -14.75 16.671875 -13.3125 C 16.671875 -12.625 16.535156 -11.976562 16.265625 -11.375 C 16.003906 -10.769531 15.601562 -10.210938 15.0625 -9.703125 C 16.050781 -9.109375 16.789062 -8.414062 17.28125 -7.625 C 17.78125 -6.832031 18.03125 -5.929688 18.03125 -4.921875 C 18.03125 -4.128906 17.851562 -3.390625 17.5 -2.703125 C 17.226562 -2.179688 16.898438 -1.765625 16.515625 -1.453125 C 15.992188 -1.023438 15.351562 -0.675781 14.59375 -0.40625 C 13.84375 -0.132812 12.898438 0 11.765625 0 L 2.515625 0 C 1.753906 0 1.210938 -0.144531 0.890625 -0.4375 C 0.578125 -0.726562 0.421875 -1.109375 0.421875 -1.578125 C 0.421875 -2.035156 0.582031 -2.410156 0.90625 -2.703125 C 1.226562 -2.992188 1.765625 -3.140625 2.515625 -3.140625 Z M 6.15625 -10.890625 L 9.609375 -10.890625 C 10.847656 -10.890625 11.875 -11.195312 12.6875 -11.8125 C 13.25 -12.238281 13.53125 -12.765625 13.53125 -13.390625 C 13.53125 -13.941406 13.265625 -14.421875 12.734375 -14.828125 C 12.210938 -15.242188 11.382812 -15.453125 10.25 -15.453125 L 6.15625 -15.453125 Z M 6.15625 -3.140625 L 11.59375 -3.140625 C 12.875 -3.140625 13.773438 -3.332031 14.296875 -3.71875 C 14.691406 -4 14.890625 -4.40625 14.890625 -4.9375 C 14.890625 -5.570312 14.492188 -6.195312 13.703125 -6.8125 C 12.921875 -7.425781 11.789062 -7.734375 10.3125 -7.734375 L 6.15625 -7.734375 Z M 6.15625 -3.140625 "/></g></g><g transform="translate(206.732998, 274.33676)"><g><path d="M 8.125 -15.453125 L 8.125 -3.140625 L 14.90625 -3.140625 L 14.90625 -6.125 C 14.90625 -6.882812 15.050781 -7.425781 15.34375 -7.75 C 15.632812 -8.070312 16.015625 -8.234375 16.484375 -8.234375 C 16.941406 -8.234375 17.316406 -8.070312 17.609375 -7.75 C 17.898438 -7.425781 18.046875 -6.882812 18.046875 -6.125 L 18.046875 0 L 3.140625 0 C 2.390625 0 1.851562 -0.144531 1.53125 -0.4375 C 1.207031 -0.726562 1.046875 -1.109375 1.046875 -1.578125 C 1.046875 -2.035156 1.207031 -2.410156 1.53125 -2.703125 C 1.851562 -2.992188 2.390625 -3.140625 3.140625 -3.140625 L 4.96875 -3.140625 L 4.96875 -15.453125 L 3.140625 -15.453125 C 2.390625 -15.453125 1.851562 -15.597656 1.53125 -15.890625 C 1.207031 -16.179688 1.046875 -16.5625 1.046875 -17.03125 C 1.046875 -17.507812 1.207031 -17.894531 1.53125 -18.1875 C 1.851562 -18.476562 2.390625 -18.625 3.140625 -18.625 L 9.96875 -18.609375 C 10.71875 -18.609375 11.253906 -18.460938 11.578125 -18.171875 C 11.898438 -17.890625 12.0625 -17.507812 12.0625 -17.03125 C 12.0625 -16.5625 11.898438 -16.179688 11.578125 -15.890625 C 11.253906 -15.597656 10.71875 -15.453125 9.96875 -15.453125 Z M 8.125 -15.453125 "/></g></g><g transform="translate(225.594604, 274.33676)"><g><path d="M 18.265625 -9.296875 C 18.265625 -6.503906 17.375 -4.179688 15.59375 -2.328125 C 13.820312 -0.472656 11.769531 0.453125 9.4375 0.453125 C 7.34375 0.453125 5.453125 -0.316406 3.765625 -1.859375 C 1.671875 -3.773438 0.625 -6.253906 0.625 -9.296875 C 0.625 -12.347656 1.671875 -14.835938 3.765625 -16.765625 C 5.453125 -18.304688 7.34375 -19.078125 9.4375 -19.078125 C 11.769531 -19.078125 13.820312 -18.148438 15.59375 -16.296875 C 17.375 -14.441406 18.265625 -12.109375 18.265625 -9.296875 Z M 15.125 -9.296875 C 15.125 -11.210938 14.546875 -12.796875 13.390625 -14.046875 C 12.234375 -15.304688 10.914062 -15.9375 9.4375 -15.9375 C 7.976562 -15.9375 6.671875 -15.304688 5.515625 -14.046875 C 4.359375 -12.785156 3.78125 -11.203125 3.78125 -9.296875 C 3.78125 -7.398438 4.359375 -5.820312 5.515625 -4.5625 C 6.671875 -3.3125 7.976562 -2.6875 9.4375 -2.6875 C 10.914062 -2.6875 12.234375 -3.3125 13.390625 -4.5625 C 14.546875 -5.8125 15.125 -7.390625 15.125 -9.296875 Z M 15.125 -9.296875 "/></g></g><g transform="translate(244.45621, 274.33676)"><g><path d="M 17.359375 -5.75 L 17.359375 -1.53125 C 15.941406 -0.769531 14.734375 -0.25 13.734375 0.03125 C 12.734375 0.3125 11.65625 0.453125 10.5 0.453125 C 8.894531 0.453125 7.40625 0.210938 6.03125 -0.265625 C 4.957031 -0.628906 4.109375 -1.09375 3.484375 -1.65625 C 2.867188 -2.21875 2.300781 -3.046875 1.78125 -4.140625 C 1.257812 -5.242188 1 -6.476562 1 -7.84375 L 1 -10.109375 C 1 -12.210938 1.640625 -14.085938 2.921875 -15.734375 C 4.640625 -17.960938 6.976562 -19.078125 9.9375 -19.078125 C 10.789062 -19.078125 11.601562 -18.988281 12.375 -18.8125 C 13.144531 -18.644531 13.878906 -18.382812 14.578125 -18.03125 C 15.003906 -18.414062 15.414062 -18.609375 15.8125 -18.609375 C 16.269531 -18.609375 16.640625 -18.445312 16.921875 -18.125 C 17.210938 -17.8125 17.359375 -17.273438 17.359375 -16.515625 L 17.359375 -14.46875 C 17.359375 -13.71875 17.210938 -13.179688 16.921875 -12.859375 C 16.628906 -12.535156 16.253906 -12.375 15.796875 -12.375 C 15.429688 -12.375 15.113281 -12.484375 14.84375 -12.703125 C 14.632812 -12.859375 14.460938 -13.195312 14.328125 -13.71875 C 14.191406 -14.25 14.035156 -14.609375 13.859375 -14.796875 C 13.585938 -15.097656 13.097656 -15.363281 12.390625 -15.59375 C 11.691406 -15.820312 10.910156 -15.9375 10.046875 -15.9375 C 8.796875 -15.9375 7.707031 -15.679688 6.78125 -15.171875 C 6.125 -14.785156 5.519531 -14.125 4.96875 -13.1875 C 4.414062 -12.25 4.140625 -11.222656 4.140625 -10.109375 L 4.140625 -7.84375 C 4.140625 -6.15625 4.628906 -4.875 5.609375 -4 C 6.585938 -3.125 8.140625 -2.6875 10.265625 -2.6875 C 11.710938 -2.6875 13.03125 -2.957031 14.21875 -3.5 L 14.21875 -5.75 L 11 -5.75 C 10.25 -5.75 9.710938 -5.894531 9.390625 -6.1875 C 9.066406 -6.476562 8.90625 -6.863281 8.90625 -7.34375 C 8.90625 -7.8125 9.066406 -8.191406 9.390625 -8.484375 C 9.710938 -8.773438 10.25 -8.921875 11 -8.921875 L 16.59375 -8.90625 C 17.351562 -8.90625 17.894531 -8.757812 18.21875 -8.46875 C 18.539062 -8.1875 18.703125 -7.8125 18.703125 -7.34375 C 18.703125 -6.96875 18.585938 -6.640625 18.359375 -6.359375 C 18.140625 -6.085938 17.804688 -5.882812 17.359375 -5.75 Z M 17.359375 -5.75 "/></g></g></g></svg>